<?xml version="1.0" encoding="UTF-8" standalone="no" ?>
<!DOCTYPE svg PUBLIC "-//W3C//DTD SVG 1.1//EN" "http://www.w3.org/Graphics/SVG/1.1/DTD/svg11.dtd">
<svg xmlns="http://www.w3.org/2000/svg" xmlns:xlink="http://www.w3.org/1999/xlink" version="1.1" width="500" height="500" viewBox="0 0 500 500" xml:space="preserve">
<desc>Created with Fabric.js 3.6.3</desc>
<defs>
</defs>
<g transform="matrix(0.5 0 0 0.5 109.56956521739136 252.7513357809923)" clip-path="url(#CLIPPATH_10400)"  >
<clipPath id="CLIPPATH_10400" >
	<ellipse transform="matrix(1 0 0 1 0 0)" cx="0" cy="0" rx="147.4406100927231" ry="147.4406100927231" />
</clipPath>
<ellipse style="stroke: rgb(0,0,0); stroke-width: 5; stroke-dasharray: none; stroke-linecap: butt; stroke-dashoffset: 0; stroke-linejoin: miter; stroke-miterlimit: 4; fill: #c5942e; fill-rule: nonzero; opacity: 1;"  cx="0" cy="0" rx="147.4406100927231" ry="147.4406100927231" />
</g>
<g transform="matrix(1 0 0 1 364.345 243.47717460471068)" style=""  ><path fill="#F3EDE6" opacity="1" d="M-141.46 8.56L-141.46 8.56Q-139.83 8.56-138.88 8.43Q-137.94 8.31-137.47 8.11Q-136.99 7.92-136.86 7.68Q-136.73 7.45-136.73 7.19L-136.73 7.19Q-136.73 6.20-137.92 5.98Q-139.10 5.77-141.68 5.68L-141.68 5.68Q-142.54 5.68-143.72 5.60Q-144.90 5.51-146.17 5.30Q-147.44 5.08-148.69 4.65Q-149.94 4.22-150.90 3.45Q-151.87 2.67-152.47 1.51Q-153.07 0.35-153.07-1.33L-153.07-1.33L-153.07-1.76Q-153.07-3.18-152.54-4.44Q-152.00-5.71-150.67-6.70Q-149.33-7.69-147.12-8.27Q-144.90-8.85-141.55-8.85L-141.55-8.85L-140.35-8.85Q-137.90-8.85-135.57-8.57Q-133.25-8.29-131.06-7.78L-131.06-7.78L-131.06-1.80Q-133.64-2.40-136.18-2.72Q-138.71-3.05-141.42-3.05L-141.42-3.05Q-143.10-3.05-144.04-2.92Q-144.99-2.79-145.46-2.57Q-145.94-2.36-146.06-2.12Q-146.19-1.89-146.19-1.63L-146.19-1.63Q-146.19-0.72-145.03-0.49Q-143.87-0.25-141.25-0.17L-141.25-0.17Q-140.43-0.12-139.25-0.08Q-138.07-0.04-136.80 0.20Q-135.53 0.44-134.28 0.87Q-133.04 1.30-132.05 2.07Q-131.06 2.84-130.46 4.01Q-129.85 5.17-129.85 6.84L-129.85 6.84L-129.85 7.27Q-129.85 8.69-130.39 9.96Q-130.93 11.23-132.26 12.22Q-133.59 13.21-135.81 13.79Q-138.02 14.37-141.38 14.37L-141.38 14.37L-142.58 14.37Q-145.38 14.37-148 14.09Q-150.62 13.81-153.16 13.29L-153.16 13.29L-153.16 7.32Q-150.32 7.92-147.29 8.24Q-144.26 8.56-141.46 8.56Z"/><path fill="#F3EDE6" opacity="1" d="M-122.42-7.99L-124.14-7.99L-124.14 13.51L-117.26 13.51L-117.26-4.98L-122.42-7.99ZM-124.57-15.00L-124.57-15.52Q-124.57-16.85-123.79-17.80Q-123.02-18.74-120.87-18.74L-120.87-18.74L-120.52-18.74Q-118.37-18.74-117.60-17.80Q-116.83-16.85-116.83-15.52L-116.83-15.52L-116.83-15.00Q-116.83-13.67-117.60-12.72Q-118.37-11.78-120.52-11.78L-120.52-11.78L-120.87-11.78Q-123.02-11.78-123.79-12.72Q-124.57-13.67-124.57-15.00L-124.57-15.00Z"/><path fill="#F3EDE6" opacity="1" d="M-85.78-15.73L-85.78 13.51L-87.50 13.51L-89.82 12.18Q-91.89 13.29-94.21 13.83Q-96.53 14.37-99.37 14.37L-99.37 14.37Q-102.98 14.37-105.34 13.53Q-107.71 12.69-109.13 11.23Q-110.55 9.77-111.11 7.81Q-111.67 5.85-111.67 3.62L-111.67 3.62L-111.67 1.90Q-111.67-0.34-111.11-2.29Q-110.55-4.25-109.13-5.71Q-107.71-7.17-105.34-8.01Q-102.98-8.85-99.37-8.85L-99.37-8.85Q-97.47-8.85-95.82-8.59Q-94.16-8.34-92.66-7.86L-92.66-7.86L-92.66-18.74L-90.94-18.74L-85.78-15.73ZM-98.98 8.13L-98.98 8.13Q-95.58 8.13-92.66 7.23L-92.66 7.23L-92.66-1.67Q-94.12-2.14-95.67-2.38Q-97.22-2.62-98.98-2.62L-98.98-2.62Q-101.17-2.62-102.33-2.17Q-103.50-1.71-104.05-0.98Q-104.61-0.25-104.70 0.74Q-104.78 1.73-104.78 2.76L-104.78 2.76Q-104.78 3.79-104.70 4.78Q-104.61 5.77-104.05 6.50Q-103.50 7.23-102.33 7.68Q-101.17 8.13-98.98 8.13Z"/><path fill="#F3EDE6" opacity="1" d="M-67.50 14.37L-68.32 14.37Q-71.93 14.37-74.30 13.53Q-76.66 12.69-78.08 11.23Q-79.50 9.77-80.06 7.81Q-80.62 5.85-80.62 3.62L-80.62 3.62L-80.62 1.90Q-80.62-0.34-80.06-2.29Q-79.50-4.25-78.08-5.71Q-76.66-7.17-74.30-8.01Q-71.93-8.85-68.32-8.85L-68.32-8.85L-67.12-8.85Q-63.46-8.85-61.14-8.31Q-58.82-7.78-57.53-6.83Q-56.24-5.88-55.76-4.64Q-55.29-3.39-55.29-1.97L-55.29-1.97L-55.29-1.54Q-55.29-0.25-55.61 0.91Q-55.94 2.07-57.14 2.97Q-58.34 3.88-60.69 4.39Q-63.03 4.91-67.07 4.91L-67.07 4.91Q-69.01 4.91-70.64 4.74Q-72.28 4.56-73.74 4.13L-73.74 4.13Q-73.70 5.04-73.44 5.79Q-73.18 6.54-72.47 7.06Q-71.76 7.57-70.47 7.85Q-69.18 8.13-67.03 8.13L-67.03 8.13Q-66.00 8.13-64.73 8.05Q-63.46 7.96-62.11 7.81Q-60.75 7.66-59.44 7.42Q-58.13 7.19-57.01 6.84L-57.01 6.84L-57.01 13.29Q-58.13 13.55-59.44 13.74Q-60.75 13.94-62.15 14.09Q-63.55 14.24-64.92 14.30Q-66.30 14.37-67.50 14.37L-67.50 14.37ZM-67.07-3.48L-67.07-3.48Q-68.79-3.48-69.95-3.28Q-71.12-3.09-71.85-2.70Q-72.58-2.32-72.96-1.76Q-73.35-1.20-73.52-0.47L-73.52-0.47Q-72.28-0.12-70.84 0.03Q-69.40 0.18-67.50 0.18L-67.50 0.18Q-65.61 0.18-64.54 0.03Q-63.46-0.12-62.95-0.36Q-62.43-0.60-62.30-0.88Q-62.17-1.15-62.17-1.46L-62.17-1.46Q-62.17-1.76-62.28-2.12Q-62.39-2.49-62.88-2.79Q-63.38-3.09-64.36-3.28Q-65.35-3.48-67.07-3.48Z"/><path fill="#F3EDE6" opacity="1" d="M-24.72 13.51L-31.34 13.51L-36.16 5.94L-43.04 5.94L-43.04 13.51L-49.92 13.51L-49.92-18.74L-48.20-18.74L-43.04-15.73L-43.04-0.42L-36.16-0.42L-31.34-7.99L-24.72-7.99L-24.72-6.27L-30.44 2.76L-24.72 11.79L-24.72 13.51Z"/><path fill="#F3EDE6" opacity="1" d="M-18.35-7.99L-20.07-7.99L-20.07 13.51L-13.19 13.51L-13.19-4.98L-18.35-7.99ZM-20.50-15.00L-20.50-15.52Q-20.50-16.85-19.73-17.80Q-18.96-18.74-16.81-18.74L-16.81-18.74L-16.46-18.74Q-14.31-18.74-13.54-17.80Q-12.76-16.85-12.76-15.52L-12.76-15.52L-12.76-15.00Q-12.76-13.67-13.54-12.72Q-14.31-11.78-16.46-11.78L-16.46-11.78L-16.81-11.78Q-18.96-11.78-19.73-12.72Q-20.50-13.67-20.50-15.00L-20.50-15.00Z"/><path fill="#F3EDE6" opacity="1" d="M-7.60 3.62L-7.60 1.90Q-7.60-0.34-7.05-2.29Q-6.49-4.25-5.07-5.71Q-3.65-7.17-1.28-8.01Q1.08-8.85 4.69-8.85L4.69-8.85L5.90-8.85Q8.22-8.85 10.43-8.57Q12.65-8.29 14.76-7.78L14.76-7.78L14.76-1.37Q12.35-2.06 9.94-2.34Q7.53-2.62 5.73-2.62L5.73-2.62Q3.32-2.62 2.01-2.21Q0.69-1.80 0.09-1.09Q-0.51-0.38-0.62 0.61Q-0.72 1.60-0.72 2.76L-0.72 2.76Q-0.72 3.92-0.62 4.91Q-0.51 5.90 0.09 6.61Q0.69 7.32 2.01 7.72Q3.32 8.13 5.73 8.13L5.73 8.13Q7.53 8.13 9.94 7.85Q12.35 7.57 14.76 6.89L14.76 6.89L14.76 13.29Q12.65 13.81 10.43 14.09Q8.22 14.37 5.90 14.37L5.90 14.37L4.69 14.37Q1.08 14.37-1.28 13.53Q-3.65 12.69-5.07 11.23Q-6.49 9.77-7.05 7.81Q-7.60 5.85-7.60 3.62L-7.60 3.62Z"/><path fill="#F3EDE6" opacity="1" d="M45.50 13.51L38.88 13.51L34.06 5.94L27.18 5.94L27.18 13.51L20.30 13.51L20.30-18.74L22.02-18.74L27.18-15.73L27.18-0.42L34.06-0.42L38.88-7.99L45.50-7.99L45.50-6.27L39.78 2.76L45.50 11.79L45.50 13.51Z"/></g><g transform="matrix(1 0 0 1 365.84499324399155 271.7180746593008)" style=""  ><path fill="#F3EDE6" opacity="1" d="M-148.72-3.79L-149.78-3.79C-150.14-3.79-150.19-3.55-150.27-3.42L-151.79-0.71L-153.30-3.42C-153.38-3.55-153.43-3.79-153.80-3.79L-154.89-3.79C-155.14-3.79-155.21-3.67-155.21-3.47L-155.21 3.14C-155.21 3.39-155.09 3.46-154.89 3.46L-153.80 3.46C-153.60 3.46-153.48 3.39-153.48 3.14L-153.48-0.59L-152.37 1.33C-152.32 1.42-152.23 1.56-152.06 1.56L-151.51 1.56C-151.35 1.56-151.25 1.42-151.20 1.33L-150.10-0.59L-150.10 3.14C-150.10 3.39-149.97 3.46-149.78 3.46L-148.72 3.46C-148.52 3.46-148.40 3.39-148.40 3.14L-148.40-3.47C-148.40-3.67-148.47-3.79-148.72-3.79Z"/><path fill="#F3EDE6" opacity="1" d="M-143.63 1.95L-144.32 1.95L-144.32-2.25L-143.66-2.25C-143.41-2.25-143.34-2.37-143.34-2.57L-143.34-3.46C-143.34-3.66-143.41-3.78-143.66-3.78L-146.72-3.78C-146.97-3.78-147.04-3.66-147.04-3.46L-147.04-2.57C-147.04-2.37-146.97-2.25-146.72-2.25L-146.05-2.25L-146.05 1.95L-146.74 1.95C-146.99 1.95-147.06 2.07-147.06 2.27L-147.06 3.14C-147.06 3.33-146.99 3.46-146.74 3.46L-143.63 3.46C-143.37 3.46-143.31 3.33-143.31 3.14L-143.31 2.27C-143.31 2.07-143.37 1.95-143.63 1.95Z"/><path fill="#F3EDE6" opacity="1" d="M-136.33-3.78L-137.39-3.78C-137.59-3.78-137.71-3.72-137.71-3.46L-137.71 0.35L-140.04-3.41C-140.18-3.63-140.26-3.78-140.54-3.78L-141.57-3.78C-141.82-3.78-141.89-3.66-141.89-3.46L-141.89 3.14C-141.89 3.39-141.77 3.46-141.57 3.46L-140.48 3.46C-140.28 3.46-140.16 3.39-140.16 3.14L-140.16-0.69L-137.83 3.08C-137.69 3.30-137.61 3.46-137.34 3.46L-136.33 3.46C-136.08 3.46-136.02 3.33-136.02 3.14L-136.02-3.46C-136.02-3.72-136.14-3.78-136.33-3.78Z"/><path fill="#F3EDE6" opacity="1" d="M-131.24 1.95L-131.93 1.95L-131.93-2.25L-131.27-2.25C-131.02-2.25-130.96-2.37-130.96-2.57L-130.96-3.46C-130.96-3.66-131.02-3.78-131.27-3.78L-134.33-3.78C-134.59-3.78-134.65-3.66-134.65-3.46L-134.65-2.57C-134.65-2.37-134.59-2.25-134.33-2.25L-133.66-2.25L-133.66 1.95L-134.35 1.95C-134.61 1.95-134.67 2.07-134.67 2.27L-134.67 3.14C-134.67 3.33-134.61 3.46-134.35 3.46L-131.24 3.46C-130.99 3.46-130.92 3.33-130.92 3.14L-130.92 2.27C-130.92 2.07-130.99 1.95-131.24 1.95Z"/><path fill="#F3EDE6" opacity="1" d=""/><path fill="#F3EDE6" opacity="1" d="M-120.30 3.15L-122.73-3.44C-122.83-3.67-122.94-3.78-123.18-3.78L-124.23-3.78C-124.48-3.78-124.60-3.67-124.69-3.44L-127.13 3.15C-127.18 3.28-127.18 3.46-126.94 3.46L-125.79 3.46C-125.54 3.46-125.46 3.39-125.37 3.13L-125.06 2.26L-122.36 2.26L-122.06 3.13C-121.97 3.39-121.88 3.46-121.64 3.46L-120.48 3.46C-120.24 3.46-120.24 3.28-120.30 3.15ZM-124.53 0.72L-123.71-1.71L-122.88 0.72Z"/><path fill="#F3EDE6" opacity="1" d="M-116.52-3.78L-119.00-3.78C-119.25-3.78-119.32-3.66-119.32-3.46L-119.32 3.14C-119.32 3.39-119.20 3.46-119.00 3.46L-117.91 3.46C-117.71 3.46-117.59 3.39-117.59 3.14L-117.59 1.31L-116.53 1.31C-114.65 1.31-113.64 0.30-113.64-1.23C-113.64-2.75-114.63-3.78-116.52-3.78ZM-116.53-0.17L-117.59-0.17L-117.59-2.23L-116.53-2.23C-115.68-2.23-115.30-1.77-115.30-1.20C-115.30-0.65-115.68-0.17-116.53-0.17Z"/><path fill="#F3EDE6" opacity="1" d="M-109.62-3.78L-112.09-3.78C-112.34-3.78-112.41-3.66-112.41-3.46L-112.41 3.14C-112.41 3.39-112.29 3.46-112.09 3.46L-111.00 3.46C-110.80 3.46-110.68 3.39-110.68 3.14L-110.68 1.31L-109.63 1.31C-107.75 1.31-106.73 0.30-106.73-1.23C-106.73-2.75-107.72-3.78-109.62-3.78ZM-109.63-0.17L-110.68-0.17L-110.68-2.23L-109.63-2.23C-108.77-2.23-108.39-1.77-108.39-1.20C-108.39-0.65-108.77-0.17-109.63-0.17Z"/><path fill="#F3EDE6" opacity="1" d="M-102.09-0.75C-102.53-0.92-104.15-1.16-104.15-1.84C-104.15-2.33-103.54-2.47-103.18-2.47C-102.85-2.47-102.45-2.37-102.25-2.18C-102.11-2.04-102.06-1.96-102.01-1.85C-101.96-1.70-101.93-1.55-101.72-1.55L-100.64-1.55C-100.39-1.55-100.32-1.59-100.32-1.86C-100.32-3.31-101.85-3.95-103.25-3.95C-104.62-3.89-105.92-3.19-105.92-1.76C-105.92-0.36-104.90 0.08-103.79 0.43C-102.85 0.73-101.87 0.74-101.87 1.35C-101.87 1.97-102.36 2.10-102.95 2.10C-103.36 2.10-103.81 2.00-104.03 1.74C-104.17 1.57-104.23 1.43-104.24 1.29C-104.26 1.01-104.38 0.98-104.63 0.98L-105.70 0.98C-105.95 0.98-106.02 1.04-106.02 1.29C-106.02 2.83-104.43 3.62-103.06 3.62C-101.37 3.62-100.13 2.87-100.13 1.31C-100.13-0.19-101.30-0.50-102.09-0.75Z"/><path fill="#F3EDE6" opacity="1" d=""/><path fill="#F3EDE6" opacity="1" d="M-90.73 4.03C-90.73 4.28-90.61 4.35-90.41 4.35L-89.51 4.35C-89.31 4.35-89.19 4.28-89.19 4.03L-89.19 2.14C-89.19 1.94-89.25 1.82-89.51 1.82L-90.04 1.82L-90.04-3.46C-90.04-3.72-90.16-3.78-90.35-3.78L-94.58-3.78C-94.78-3.78-94.90-3.72-94.90-3.46L-95.25 1.09C-95.28 1.50-95.38 1.82-95.99 1.82C-96.24 1.82-96.31 1.94-96.31 2.14L-96.31 4.03C-96.31 4.28-96.18 4.35-95.99 4.35L-95.07 4.35C-94.88 4.35-94.75 4.28-94.75 4.03L-94.75 3.33L-90.73 3.33ZM-93.56 1.18L-93.28-2.30L-91.71-2.30L-91.71 1.89L-94.00 1.89C-93.73 1.81-93.58 1.59-93.56 1.18Z"/><path fill="#F3EDE6" opacity="1" d="M-87.73 1.33C-87.76 1.76-87.82 2.07-88.34 2.07C-88.54 2.07-88.58 2.18-88.58 2.37L-88.58 3.19C-88.58 3.43-88.54 3.50-88.25 3.50C-86.54 3.53-86.15 3.13-86.03 1.34L-85.79-2.24L-84.03-2.24L-84.03 3.14C-84.03 3.39-83.91 3.46-83.71 3.46L-82.62 3.46C-82.42 3.46-82.30 3.39-82.30 3.14L-82.30-3.46C-82.30-3.72-82.42-3.78-82.62-3.78L-87.01-3.78C-87.21-3.78-87.33-3.72-87.33-3.46Z"/><path fill="#F3EDE6" opacity="1" d="M-81.02 3.10C-81.11 3.26-81.06 3.46-80.85 3.46L-79.55 3.46C-79.29 3.46-79.16 3.36-79.00 3.13L-77.81 1.35C-77.72 1.22-77.69 1.10-77.69 0.79L-77.69-0.09C-77.69-0.28-77.76-0.41-78.01-0.41L-78.23-0.41C-78.77-0.41-79.28-0.78-79.28-1.30C-79.28-1.87-78.84-2.23-78.27-2.23L-76.80-2.23L-76.80 3.14C-76.80 3.39-76.68 3.46-76.48 3.46L-75.39 3.46C-75.20 3.46-75.09 3.39-75.09 3.14L-75.09-3.45C-75.09-3.65-75.14-3.77-75.39-3.77L-78.17-3.77C-79.37-3.77-79.89-3.53-80.36-3.07C-80.76-2.67-80.99-2.04-80.99-1.34C-80.99-0.19-80.15 0.62-79.46 0.85L-81.02 3.10Z"/><path fill="#F3EDE6" opacity="1" d=""/><path fill="#F3EDE6" opacity="1" d="M-70.16-3.79C-70.36-3.79-70.48-3.73-70.48-3.47L-70.48 3.14C-70.48 3.33-70.41 3.46-70.16 3.46L-67.34 3.46C-65.45 3.46-64.45 2.72-64.45 1.13C-64.45-0.43-65.37-1.11-67.32-1.11L-68.75-1.11L-68.75-2.31L-65.44-2.31C-65.19-2.31-65.12-2.43-65.12-2.63L-65.12-3.47C-65.12-3.67-65.19-3.79-65.44-3.79ZM-67.32 0.33C-66.46 0.33-66.13 0.57-66.13 1.12C-66.13 1.70-66.53 1.94-67.35 1.94L-68.75 1.94L-68.75 0.33Z"/><path fill="#F3EDE6" opacity="1" d="M-62.79-3.78C-62.99-3.78-63.11-3.72-63.11-3.46L-63.11 3.14C-63.11 3.33-63.04 3.46-62.79 3.46L-61.79 3.46C-61.51 3.46-61.44 3.30-61.29 3.08L-58.96-0.69L-58.96 3.14C-58.96 3.39-58.84 3.46-58.64 3.46L-57.55 3.46C-57.35 3.46-57.23 3.39-57.23 3.14L-57.23-3.46C-57.23-3.66-57.30-3.78-57.55-3.78L-58.59-3.78C-58.86-3.78-58.94-3.63-59.08-3.41L-61.41 0.35L-61.41-3.46C-61.41-3.72-61.53-3.78-61.73-3.78L-62.79-3.78Z"/><path fill="#F3EDE6" opacity="1" d="M-54.31 0.12C-54.31 0.32-54.26 0.42-54.03 0.42L-53.52 0.42C-52.76 0.42-52.35 0.69-52.35 1.28C-52.35 1.87-52.92 2.10-53.38 2.10C-53.75 2.10-54.36 1.98-54.53 1.45C-54.57 1.27-54.62 1.21-54.80 1.21L-55.78 1.21C-56.02 1.21-56.09 1.26-56.09 1.54C-56.09 2.72-54.84 3.62-53.45 3.62C-51.96 3.61-50.66 3.04-50.66 1.29C-50.66 0.56-51.14-0.01-51.74-0.23C-51.29-0.36-50.86-0.92-50.86-1.60C-50.86-3.19-52.09-3.93-53.57-3.94C-54.96-3.94-56.08-3.10-56.08-1.92C-56.08-1.64-56.01-1.60-55.77-1.60L-54.81-1.60C-54.63-1.60-54.58-1.65-54.54-1.84C-54.37-2.36-53.87-2.45-53.50-2.45C-53.04-2.45-52.50-2.26-52.50-1.57C-52.50-1.09-52.82-0.86-53.52-0.86L-54.01-0.86C-54.21-0.86-54.31-0.76-54.31-0.60Z"/><path fill="#F3EDE6" opacity="1" d="M-43.71-3.78L-44.80-3.78C-45.00-3.78-45.12-3.72-45.12-3.46L-45.12-0.98L-47.58-0.98L-47.58-3.46C-47.58-3.72-47.69-3.78-47.89-3.78L-48.98-3.78C-49.18-3.78-49.30-3.72-49.30-3.46L-49.30 3.14C-49.30 3.39-49.18 3.46-48.98 3.46L-47.89 3.46C-47.69 3.46-47.58 3.39-47.58 3.14L-47.58 0.65L-45.12 0.65L-45.12 3.14C-45.12 3.39-45.00 3.46-44.80 3.46L-43.71 3.46C-43.52 3.46-43.40 3.39-43.40 3.14L-43.40-3.46C-43.40-3.72-43.52-3.78-43.71-3.78Z"/><path fill="#F3EDE6" opacity="1" d="M-36.52 1.92L-40.03 1.92L-40.03 0.46L-37.08 0.46C-36.83 0.46-36.76 0.34-36.76 0.14L-36.76-0.71C-36.76-0.91-36.83-1.03-37.08-1.03L-40.03-1.03L-40.03-2.23L-36.71-2.23C-36.45-2.23-36.39-2.35-36.39-2.55L-36.39-3.46C-36.39-3.66-36.45-3.78-36.71-3.78L-41.45-3.78C-41.70-3.78-41.77-3.66-41.77-3.46L-41.77 3.14C-41.77 3.33-41.70 3.46-41.45 3.46L-36.52 3.46C-36.27 3.46-36.20 3.33-36.20 3.14L-36.20 2.23C-36.20 2.04-36.27 1.92-36.52 1.92Z"/><path fill="#F3EDE6" opacity="1" d="M-29.29 1.31C-29.29 1.05-29.38 0.94-29.62 0.94L-30.70 0.94C-30.94 0.94-30.97 1.11-31.00 1.33C-31.09 1.86-31.56 2.08-32.15 2.08C-32.88 2.08-33.37 1.68-33.37 0.98L-33.37-1.31C-33.37-2.00-32.88-2.41-32.15-2.41C-31.56-2.41-31.25-2.24-31.02-1.88C-30.93-1.75-30.92-1.54-30.69-1.54L-29.63-1.54C-29.38-1.54-29.29-1.59-29.29-1.86C-29.44-3.25-30.79-3.95-32.15-3.95C-33.46-3.95-35.10-3.19-35.10-1.46L-35.10 1.13C-35.10 2.86-33.46 3.62-32.15 3.62C-30.79 3.62-29.29 2.73-29.29 1.31Z"/><path fill="#F3EDE6" opacity="1" d="M-21.69 3.15L-24.12-3.44C-24.22-3.67-24.33-3.78-24.57-3.78L-25.63-3.78C-25.87-3.78-25.99-3.67-26.08-3.44L-28.52 3.15C-28.58 3.28-28.58 3.46-28.34 3.46L-27.18 3.46C-26.94 3.46-26.85 3.39-26.76 3.13L-26.46 2.26L-23.76 2.26L-23.45 3.13C-23.36 3.39-23.28 3.46-23.03 3.46L-21.88 3.46C-21.64 3.46-21.64 3.28-21.69 3.15ZM-25.93 0.72L-25.10-1.71L-24.28 0.72Z"/><path fill="#F3EDE6" opacity="1" d=""/><path fill="#F3EDE6" opacity="1" d="M-12.57-0.30C-12.47-0.34-11.77-0.69-11.77-1.80C-11.77-2.84-12.54-3.79-14.33-3.79L-17.41-3.79C-17.67-3.79-17.73-3.67-17.73-3.47L-17.73 3.14C-17.73 3.33-17.67 3.46-17.41 3.46L-14.18 3.46C-12.65 3.46-11.56 2.74-11.56 1.34C-11.56 0.16-12.49-0.26-12.57-0.30ZM-14.16 1.89L-16.01 1.89L-16.01-2.24L-14.33-2.24C-13.76-2.24-13.42-2.12-13.42-1.63C-13.42-1.20-13.70-0.97-14.33-0.97L-14.33-0.97L-14.48-0.97C-14.73-0.97-14.80-0.85-14.80-0.65L-14.80 0.19C-14.80 0.39-14.73 0.51-14.48 0.51L-14.22 0.51C-13.70 0.51-13.31 0.66-13.31 1.18C-13.31 1.67-13.62 1.89-14.16 1.89Z"/><path fill="#F3EDE6" opacity="1" d=""/><path fill="#F3EDE6" opacity="1" d="M-2.30-3.78L-7.40-3.78C-7.66-3.78-7.72-3.66-7.72-3.46L-7.72-2.55C-7.72-2.35-7.66-2.23-7.40-2.23L-5.71-2.23L-5.71 3.14C-5.71 3.39-5.59 3.46-5.39 3.46L-4.30 3.46C-4.10 3.46-3.98 3.39-3.98 3.14L-3.98-2.23L-2.30-2.23C-2.05-2.23-1.98-2.35-1.98-2.55L-1.98-3.46C-1.98-3.66-2.05-3.78-2.30-3.78Z"/><path fill="#F3EDE6" opacity="1" d="M4.37 1.92L0.86 1.92L0.86 0.46L3.81 0.46C4.06 0.46 4.12 0.34 4.12 0.14L4.12-0.71C4.12-0.91 4.06-1.03 3.81-1.03L0.86-1.03L0.86-2.23L4.18-2.23C4.43-2.23 4.50-2.35 4.50-2.55L4.50-3.46C4.50-3.66 4.43-3.78 4.18-3.78L-0.56-3.78C-0.81-3.78-0.88-3.66-0.88-3.46L-0.88 3.14C-0.88 3.33-0.81 3.46-0.56 3.46L4.37 3.46C4.62 3.46 4.69 3.33 4.69 3.14L4.69 2.23C4.69 2.04 4.62 1.92 4.37 1.92Z"/><path fill="#F3EDE6" opacity="1" d="M10.91 1.92L7.74 1.92L7.74-3.46C7.74-3.72 7.62-3.78 7.42-3.78L6.34-3.78C6.14-3.78 6.02-3.72 6.02-3.46L6.02 3.14C6.02 3.33 6.08 3.46 6.34 3.46L10.91 3.46C11.16 3.46 11.23 3.33 11.23 3.14L11.23 2.23C11.23 2.04 11.16 1.92 10.91 1.92Z"/><path fill="#F3EDE6" opacity="1" d="M17.67 1.92L14.16 1.92L14.16 0.46L17.10 0.46C17.36 0.46 17.42 0.34 17.42 0.14L17.42-0.71C17.42-0.91 17.36-1.03 17.10-1.03L14.16-1.03L14.16-2.23L17.48-2.23C17.73-2.23 17.80-2.35 17.80-2.55L17.80-3.46C17.80-3.66 17.73-3.78 17.48-3.78L12.74-3.78C12.48-3.78 12.42-3.66 12.42-3.46L12.42 3.14C12.42 3.33 12.48 3.46 12.74 3.46L17.67 3.46C17.92 3.46 17.98 3.33 17.98 3.14L17.98 2.23C17.98 2.04 17.92 1.92 17.67 1.92Z"/><path fill="#F3EDE6" opacity="1" d="M24.69-0.58L22.29-0.58C22.03-0.58 21.97-0.46 21.97-0.26L21.97 0.60C21.97 0.79 22.03 0.91 22.29 0.91L23.28 0.91C23.28 1.76 22.77 2.09 22.05 2.09C21.33 2.09 20.84 1.68 20.84 0.98L20.84-1.23C20.84-1.93 21.33-2.42 22.05-2.42C22.79-2.42 23.19-2.09 23.31-1.75C23.36-1.59 23.32-1.37 23.63-1.37L24.69-1.37C24.95-1.37 25.01-1.42 25.01-1.68C25.01-3.16 23.43-3.95 22.05-3.95C20.76-3.95 19.10-3.21 19.10-1.47L19.10 1.23C19.10 2.96 20.76 3.62 22.05 3.62C23.31 3.62 24.91 2.92 25.01 1.33L25.01-0.26C25.01-0.46 24.95-0.58 24.69-0.58Z"/><path fill="#F3EDE6" opacity="1" d="M32.35 3.10L30.80 0.85C31.48 0.62 32.33-0.19 32.33-1.34C32.33-2.04 32.10-2.67 31.69-3.07C31.23-3.53 30.70-3.77 29.50-3.77L26.73-3.77C26.48-3.77 26.42-3.65 26.42-3.45L26.42 3.14C26.42 3.39 26.53 3.46 26.73 3.46L27.82 3.46C28.02 3.46 28.14 3.39 28.14 3.14L28.14-2.23L29.60-2.23C30.17-2.23 30.61-1.87 30.61-1.30C30.61-0.78 30.11-0.41 29.57-0.41L29.35-0.41C29.09-0.41 29.03-0.28 29.03-0.09L29.03 0.79C29.03 1.10 29.05 1.22 29.15 1.35L30.34 3.13C30.49 3.36 30.62 3.46 30.89 3.46L32.19 3.46C32.39 3.46 32.45 3.26 32.35 3.10Z"/><path fill="#F3EDE6" opacity="1" d="M39.97 3.15L37.54-3.44C37.44-3.67 37.33-3.78 37.09-3.78L36.04-3.78C35.79-3.78 35.67-3.67 35.58-3.44L33.14 3.15C33.09 3.28 33.09 3.46 33.33 3.46L34.48 3.46C34.73 3.46 34.81 3.39 34.90 3.13L35.21 2.26L37.91 2.26L38.21 3.13C38.30 3.39 38.39 3.46 38.63 3.46L39.79 3.46C40.03 3.46 40.03 3.28 39.97 3.15ZM35.74 0.72L36.56-1.71L37.39 0.72Z"/><path fill="#F3EDE6" opacity="1" d="M47.44-3.79L46.39-3.79C46.02-3.79 45.97-3.55 45.89-3.42L44.37-0.71L42.87-3.42C42.78-3.55 42.73-3.79 42.36-3.79L41.27-3.79C41.02-3.79 40.95-3.67 40.95-3.47L40.95 3.14C40.95 3.39 41.07 3.46 41.27 3.46L42.36 3.46C42.56 3.46 42.68 3.39 42.68 3.14L42.68-0.59L43.79 1.33C43.85 1.42 43.93 1.56 44.10 1.56L44.65 1.56C44.81 1.56 44.91 1.42 44.97 1.33L46.07-0.59L46.07 3.14C46.07 3.39 46.19 3.46 46.39 3.46L47.44 3.46C47.64 3.46 47.76 3.39 47.76 3.14L47.76-3.47C47.76-3.67 47.70-3.79 47.44-3.79Z"/></g><g transform="matrix(1.3161173955740417 0 0 1.3161173955740417 109.56956521739136 252.75133578099226)"  >
<path style="stroke: none; stroke-width: 0; stroke-dasharray: none; stroke-linecap: butt; stroke-dashoffset: 0; stroke-linejoin: miter; stroke-miterlimit: 4; fill: rgb(0,0,0); fill-rule: nonzero; opacity: 1;"  transform=" translate(-50.000071859673156, -49.99975655467435)" d="M 93.713 48.342 l -8.185 -9.404 c 0.43 -4.144 -1.072 -8.428 -4.433 -11.38 c -2.431 -2.134 -5.547 -3.31 -8.777 -3.31 c -1.063 0 -2.109 0.14 -3.124 0.385 L 56.381 15.54 c -2.115 -1.449 -3.707 -1.692 -5.674 -0.864 c -1.927 0.812 -3.246 2.687 -3.36 4.778 l -1.549 29.054 c -0.137 2.526 0.876 4.935 2.777 6.605 l 0.26 0.229 c 0.186 0.163 0.422 0.249 0.661 0.249 c 0.127 0 0.255 -0.024 0.376 -0.073 c 0.351 -0.143 0.591 -0.472 0.62 -0.85 l 0.818 -10.531 c 1.019 0.352 2.147 0.323 3.189 -0.109 c 1.613 -0.672 2.674 -2.174 2.769 -3.92 l 0.389 -7.299 l 1.387 2.521 c 0.037 0.067 0.094 0.114 0.143 0.169 c -0.671 4.345 0.807 8.933 4.347 12.045 c 2.43 2.134 5.546 3.309 8.775 3.309 c 1.303 0 2.579 -0.205 3.802 -0.569 l 10.399 6.343 c 1.323 0.776 2.608 1.161 3.791 1.161 c 1.47 0 2.783 -0.595 3.819 -1.773 C 96.203 53.646 96.073 51.14 93.713 48.342 z M 57.722 28.776 c -0.214 -0.391 -0.663 -0.594 -1.099 -0.493 c -0.436 0.099 -0.752 0.476 -0.776 0.921 l -0.576 10.796 c -0.053 0.986 -0.628 1.801 -1.539 2.181 c -0.913 0.382 -1.895 0.214 -2.631 -0.442 c -0.283 -0.253 -0.686 -0.322 -1.039 -0.181 c -0.352 0.142 -0.594 0.472 -0.623 0.851 l -0.758 9.758 c -0.64 -1.053 -0.954 -2.282 -0.886 -3.551 l 1.549 -29.054 c 0.072 -1.331 0.912 -2.526 2.139 -3.042 c 1.146 -0.483 2.042 -0.51 3.754 0.661 l 11.614 8.242 c -1.714 0.771 -3.264 1.904 -4.532 3.347 c -1.065 1.213 -1.854 2.571 -2.402 3.998 L 57.722 28.776 z M 72.309 48.853 c -2.744 0 -5.392 -0.998 -7.455 -2.811 c -4.681 -4.115 -5.144 -11.271 -1.032 -15.952 c 2.146 -2.442 5.244 -3.843 8.497 -3.843 c 2.744 0 5.393 0.999 7.457 2.813 c 4.681 4.113 5.143 11.269 1.03 15.95 C 78.659 47.452 75.563 48.853 72.309 48.853 z M 92.618 54.693 c -1.532 1.742 -3.617 1.075 -5.082 0.217 l -9.119 -5.563 c 1.457 -0.753 2.785 -1.76 3.891 -3.018 c 1.293 -1.473 2.19 -3.155 2.723 -4.919 l 7.164 8.231 C 94.172 51.986 93.794 53.356 92.618 54.693 z M 21.403 48.674 l -10.212 -6.229 c -1.643 -0.962 -3.979 -1.708 -5.694 0.243 c -1.314 1.498 -1.739 3.032 0.475 5.655 l 8.021 9.217 c 0.607 -2.007 1.63 -3.883 3.056 -5.505 C 18.286 50.646 19.773 49.518 21.403 48.674 z M 37.752 70.245 c 2.231 -2.54 3.34 -5.797 3.121 -9.172 c -0.216 -3.374 -1.736 -6.462 -4.276 -8.694 c -2.313 -2.031 -5.278 -3.149 -8.351 -3.149 c -3.645 0 -7.111 1.568 -9.516 4.305 c -2.231 2.541 -3.341 5.798 -3.124 9.173 c 0.219 3.373 1.737 6.461 4.279 8.692 c 2.312 2.031 5.276 3.148 8.35 3.148 C 31.88 74.548 35.348 72.979 37.752 70.245 z M 53.083 49.055 l -0.867 7.634 c -0.631 5.3 -4.146 1.466 -5.006 1.05 l -0.524 13.498 c -0.025 0.5 -0.38 0.921 -0.868 1.032 c -0.494 0.111 -0.991 -0.113 -1.231 -0.552 l -2.454 -4.462 c -0.626 1.614 -1.521 3.129 -2.698 4.469 c -1.419 1.616 -3.156 2.885 -5.075 3.749 l 13.01 9.232 c 1.917 1.312 2.921 1.281 4.205 0.74 c 1.374 -0.579 2.314 -1.917 2.396 -3.406 l 1.803 -27.005 c 0.07 -1.3 -0.087 -2.723 -0.687 -3.831 C 54.157 49.243 53.083 49.055 53.083 49.055 z" stroke-linecap="round" />
</g>
</svg>